# xmcd CD database file
#
# Track frame offsets:
#	197
#	17490
#	20877
#	42277
#	58465
#	88590
#	103342
#	118332
#	122050
#	134082
#	135487
#	150830
#	152725
#
# Disc length: 2206 seconds
#
# Revision: 0
# Processed by: cddbd v1.5.1PL2 Copyright (c) Steve Scherf et al.
# Submitted via: CDex 1.51
#
DISCID=b6089c0d
DTITLE=Sampson Pittman - The Devil Is Busy
DYEAR=1992
DGENRE=Blues
TTITLE0=I Been Down in the Circle Before
TTITLE1=Interview
TTITLE2=Levee Camp Story
TTITLE3=Highway 61 Blues
TTITLE4=Brother Low-Down and Sister Do-Dad (Parts 1, 2 and 3)
TTITLE5=Brother Low-Down and Sister Do-Dad - Version 2
TTITLE6=Cotton Farmer Blues
TTITLE7=Interview
TTITLE8=Welfare Blues
TTITLE9=Interview
TTITLE10=Joe Louis
TTITLE11=Interview
TTITLE12=John Henry
EXTD=YEAR: 1992
EXTT0=
EXTT1=
EXTT2=
EXTT3=
EXTT4=
EXTT5=
EXTT6=
EXTT7=
EXTT8=
EXTT9=
EXTT10=
EXTT11=
EXTT12=
PLAYORDER=
